<?xml version="1.0" encoding="UTF-8"?>
    <svg width="800" height="400" version="1.1" xmlns="http://www.w3.org/2000/svg">
    <style>
        .row { font: 14px Arial; fill: #64748b; }
        .score { font: bold 14px Arial; fill: #64748b; }
    </style>
    <text x="400" y="40" text-anchor="middle" font-size="20px" font-weight="bold" fill="#64748b">Channel Performance Overview</text><rect x="150" y="80" width="500" height="30" fill="#eee" rx="5"/><rect x="150" y="80" width="387.04999999999995" height="30" fill="#22c55e" rx="5"/>
        <text x="140" y="100" text-anchor="end" class="row">configs.txt</text>
        <text x="660" y="100" text-anchor="start" class="score">77.4% (S:100%)</text><rect x="150" y="130" width="500" height="30" fill="#eee" rx="5"/><rect x="150" y="130" width="384.25" height="30" fill="#22c55e" rx="5"/>
        <text x="140" y="150" text-anchor="end" class="row">POORIARED.txt</text>
        <text x="660" y="150" text-anchor="start" class="score">76.8% (S:100%)</text><rect x="150" y="180" width="500" height="30" fill="#eee" rx="5"/><rect x="150" y="180" width="394.65000000000003" height="30" fill="#22c55e" rx="5"/>
        <text x="140" y="200" text-anchor="end" class="row">POORIA--REDFREE8.txt#POORIA--REDFREE8</text>
        <text x="660" y="200" text-anchor="start" class="score">78.9% (S:100%)</text><rect x="150" y="230" width="500" height="30" fill="#eee" rx="5"/><rect x="150" y="230" width="410.79999999999995" height="30" fill="#22c55e" rx="5"/>
        <text x="140" y="250" text-anchor="end" class="row">redfree8</text>
        <text x="660" y="250" text-anchor="start" class="score">82.2% (S:100%)</text><rect x="150" y="280" width="500" height="30" fill="#eee" rx="5"/><rect x="150" y="280" width="75.0" height="30" fill="#ef4444" rx="5"/>
        <text x="140" y="300" text-anchor="end" class="row">redv2ray_channel</text>
        <text x="660" y="300" text-anchor="start" class="score">15.0% (S:0%)</text><rect x="150" y="330" width="500" height="30" fill="#eee" rx="5"/><rect x="150" y="330" width="75.0" height="30" fill="#ef4444" rx="5"/>
        <text x="140" y="350" text-anchor="end" class="row">pooriared</text>
        <text x="660" y="350" text-anchor="start" class="score">15.0% (S:0%)</text></svg>